<svg xmlns="http://www.w3.org/2000/svg" width="815" height="650">
  <title>Map of Swiss cantons</title>
  <style>
    rect,
    polygon {
      fill: rgb(230,230,230);
    }
    text {
      font-family: arial, sans-serif;
      font-size: 25px;
      fill: #333;
      stroke-width: 0;
      dominant-baseline: middle;
      text-anchor: middle;
    }
    .lake {
      fill: rgb(175, 222, 233);
    }
  </style>
  <g class="canton" id="SH">
    <rect x="495" y="0" width="100" height="100" />
    <text x="545" y="50">SH</text>
  </g>

  <rect class="lake" x="605" y="60" width="100" height="40" />

  <g class="canton" id="JU">
    <rect x="165" y="110" width="100" height="100" />
    <text x="215" y="160">JU</text>
  </g>

  <g class="double-canton">
    <g class="canton" id="BS">
      <polygon points="275,111 374,210 275,210" />
      <text x="300" y="180">BS</text>
    </g>
    <g class="canton" id="BL">
      <polygon points="276,110 375,110 375,209" />
      <text x="350" y="145">BL</text>
    </g>
  </g>

  <g class="canton" id="AG">
    <rect x="385" y="110" width="100" height="100" />
    <text x="435" y="160">AG</text>
  </g>
  <g class="canton" id="ZH">
    <rect x="495" y="110" width="100" height="100" />
    <text x="545" y="160">ZH</text>
  </g>
  <g class="canton" id="TG">
    <rect x="605" y="110" width="100" height="100" />
    <text x="655" y="160">TG</text>
  </g>

  <g class="double-canton">
    <g class="canton" id="AR">
      <polygon points="715,156 814,255 715,255" />
      <text x="745" y="230">AR</text>
    </g>
    <g class="canton" id="AI">
      <polygon points="716,155 815,155 815,254" />
      <text x="785" y="190">AI</text>
    </g>
  </g>

  <g class="canton" id="NE">
    <rect x="165" y="220" width="100" height="100" />
    <text x="215" y="270">NE</text>
  </g>
  <g class="canton" id="SO">
    <rect x="275" y="220" width="100" height="100" />
    <text x="325" y="270">SO</text>
  </g>
  <g class="canton" id="LU">
    <rect x="385" y="220" width="100" height="100" />
    <text x="435" y="270">LU</text>
  </g>
  <g class="canton" id="ZG">
    <rect x="495" y="220" width="100" height="100" />
    <text x="545" y="270">ZG</text>
  </g>
  <g class="canton" id="SG">
    <rect x="605" y="220" width="100" height="100" />
    <text x="655" y="270">SG</text>
  </g>

  <g class="canton" id="VD">
    <rect x="55" y="330" width="100" height="100" />
    <text x="105" y="380">VD</text>
  </g>
  <g class="canton" id="FR">
    <rect x="165" y="330" width="100" height="100" />
    <text x="215" y="380">FR</text>
  </g>
  <g class="canton" id="BE">
    <rect x="275" y="330" width="100" height="100" />
    <text x="325" y="380">BE</text>
  </g>
  <g class="double-canton">
    <g class="canton" id="OW">
      <polygon points="385,331 484,430 385,430" />
      <text x="415" y="405">OW</text>
    </g>
    <g class="canton" id="NW">
      <polygon points="386,330 485,330 485,429" />
      <text x="455" y="360">NW</text>
    </g>
  </g>
  <g class="canton" id="SZ">
    <rect x="495" y="330" width="100" height="100" />
    <text x="545" y="380">SZ</text>
  </g>
  <g class="canton" id="GL">
    <rect x="605" y="330" width="100" height="100" />
    <text x="655" y="380">GL</text>
  </g>
  <g class="canton" id="GR">
    <rect x="715" y="330" width="100" height="100" />
    <text x="765" y="380">GR</text>
  </g>

  <g class="canton" id="GE">
    <rect x="0" y="440" width="100" height="100" />
    <text x="50" y="490">GE</text>
  </g>
  <rect class="lake" x="110" y="440" width="100" height="40" />
  <g class="canton" id="VS">
    <rect x="220" y="440" width="100" height="100" />
    <text x="270" y="490">VS</text>
  </g>
  <g class="canton" id="UR">
    <rect x="495" y="440" width="100" height="100" />
    <text x="545" y="490">UR</text>
  </g>

  <g class="canton" id="TI">
    <rect x="495" y="550" width="100" height="100" />
    <text x="545" y="600">TI</text>
  </g>

</svg>
